<?xml version="1.0" encoding="UTF-8"?>
<svg id="Capa_2" data-name="Capa 2" xmlns="http://www.w3.org/2000/svg" viewBox="0 0 43.59 29.29">
  <defs>
    <style>
      .cls-1 {
        fill: #fff;
      }
    </style>
  </defs>
  <g id="Capa_1-2" data-name="Capa 1">
    <path class="cls-1" d="m38.96,0H4.57C2.01,0,0,2.01,0,4.57v20.11c0,2.63,1.98,4.61,4.61,4.61h34.36c2.63,0,4.61-1.98,4.61-4.61V4.62c0-2.64-1.99-4.62-4.63-4.62ZM12.92,25.85c-2.36,0-4.71,0-7.07,0l9.98-9.97,4.76,3.95c.78.64,1.64.65,2.41,0l4.77-3.96,9.98,9.97H12.92Zm27.21-2.64l-9.61-9.6,9.61-7.97c0,5.86,0,11.72,0,17.58Zm-12.48-8.4h0s-.02-.02-.02-.02l.02.02ZM6.23,3.44h31.12s-15.56,12.91-15.56,12.91L6.23,3.44Zm6.84,10.16L3.46,23.21c0-5.86,0-11.73,0-17.59l9.62,7.98Z"/>
  </g>
</svg>