<?xml version="1.0" encoding="utf-8"?>
<!-- Generator: Adobe Illustrator 25.2.0, SVG Export Plug-In . SVG Version: 6.00 Build 0)  -->
<svg version="1.1" xmlns="http://www.w3.org/2000/svg" xmlns:xlink="http://www.w3.org/1999/xlink" x="0px" y="0px"
	 viewBox="0 0 1080 1080" style="enable-background:new 0 0 1080 1080;" xml:space="preserve">
<style type="text/css">
	.st0{display:none;}
	.st1{display:inline;}
	.st2{fill-rule:evenodd;clip-rule:evenodd;fill:#6E7677;}
	.st3{fill:#6E7677;}
	.st4{display:inline;fill:#6E7677;}
	.st5{fill:#333333;}
</style>
<g id="WhatsApp" class="st0">
	<g class="st1">
		<g>
			<g>
				<g>
					<path class="st2" d="M535.61,124.09c-216.4,0-392.45,176.05-392.45,392.45c0,76.13,21.61,149.24,62.68,212.7l-59.62,131.33
						c-5.49,12.11-3.49,26.29,5.13,36.41c6.61,7.75,16.19,12.03,26.08,12.03c3.02,0,6.07-0.4,9.07-1.22l164.27-45.07
						C407.47,893.04,471.07,909,535.61,909c216.4,0,392.46-176.06,392.46-392.46C928.07,300.14,752.02,124.09,535.61,124.09z
						 M535.61,840.46c-57.31,0-113.72-15.25-163.09-44.1c-5.29-3.09-11.27-4.68-17.29-4.68c-3.04,0-6.09,0.41-9.07,1.22
						l-107.31,29.44L276.23,740c5.08-11.19,3.78-24.25-3.42-34.21c-39.98-55.42-61.11-120.86-61.11-189.25
						c0-178.61,145.3-323.91,323.91-323.91c178.61,0,323.92,145.3,323.92,323.91C859.53,695.15,714.22,840.46,535.61,840.46z"/>
				</g>
				<g>
					<path class="st2" d="M686.5,575.31c-16.43-9.83-37.82-20.81-57.19-12.89c-14.85,6.08-24.34,29.33-33.96,41.21
						c-4.94,6.09-10.84,7.05-18.42,3.99c-55.76-22.21-98.49-59.44-129.26-110.72c-5.21-7.97-4.28-14.26,2-21.65
						c9.3-10.94,20.97-23.37,23.48-38.12c2.51-14.75-4.4-31.99-10.5-45.12c-7.79-16.78-16.5-40.72-33.31-50.21
						c-15.46-8.73-35.81-3.84-49.58,7.37c-23.76,19.35-35.23,49.67-34.88,79.72c0.1,8.54,1.15,17.06,3.14,25.3
						c4.8,19.82,13.96,38.33,24.27,55.93c7.77,13.27,16.22,26.15,25.34,38.53c29.82,40.52,66.93,75.73,109.89,102.04
						c21.47,13.15,44.59,24.68,68.53,32.59c26.86,8.87,50.78,18.11,79.78,12.6c30.36-5.76,60.29-24.55,72.34-53.81
						c3.56-8.66,5.35-18.31,3.36-27.46C727.41,595.71,701.8,584.46,686.5,575.31z"/>
				</g>
			</g>
		</g>
	</g>
	<g class="st1">
		<g>
			<g>
				<path class="st2" d="M-54.23,212.73v8.82c0,0.13,0.1,0.23,0.23,0.23h3.28c0.13,0,0.23-0.1,0.23-0.23v-8.96h2.37
					c0.12,0,0.22-0.09,0.23-0.21l0.23-2.7c0.01-0.13-0.09-0.25-0.23-0.25h-2.6v-1.92c0-0.45,0.36-0.81,0.81-0.81h1.83
					c0.13,0,0.23-0.1,0.23-0.23v-2.7c0-0.13-0.1-0.23-0.23-0.23h-3.09c-1.81,0-3.29,1.47-3.29,3.29v2.6h-1.64
					c-0.13,0-0.23,0.1-0.23,0.23v2.7c0,0.13,0.1,0.23,0.23,0.23h1.64V212.73z"/>
			</g>
		</g>
	</g>
	<g class="st1">
		<g>
			<path class="st3" d="M-47.62,231.77c-0.62,0-1.12,0.5-1.12,1.12c0,0.62,0.5,1.12,1.12,1.12c0.62,0,1.12-0.5,1.12-1.12
				C-46.5,232.27-47,231.77-47.62,231.77z M-52.59,233.21c-2.59,0-4.7,2.11-4.7,4.7c0,2.59,2.11,4.7,4.7,4.7
				c2.59,0,4.7-2.11,4.7-4.7C-47.89,235.32-50,233.21-52.59,233.21z M-52.59,240.92c-1.66,0-3.01-1.35-3.01-3.01
				s1.35-3.01,3.01-3.01c1.66,0,3.01,1.35,3.01,3.01S-50.93,240.92-52.59,240.92z M-43.11,234c0-3.17-2.57-5.73-5.73-5.73h-7.57
				c-3.17,0-5.73,2.57-5.73,5.73v7.57c0,3.17,2.57,5.73,5.73,5.73h7.57c3.17,0,5.73-2.57,5.73-5.73V234z M-44.9,241.57
				c0,2.17-1.76,3.94-3.94,3.94h-7.57c-2.17,0-3.94-1.76-3.94-3.94V234c0-2.17,1.76-3.94,3.94-3.94h7.57c2.17,0,3.94,1.76,3.94,3.94
				V241.57z"/>
		</g>
	</g>
	<path class="st4" d="M-148.8,242.45c-0.74,0.68-1.47,1.36-2.49,1.59c-0.43,0.1-0.88,0.16-1.11,0.2c-1.19-0.03-2.13-0.26-2.98-0.75
		c-3.09-1.81-5.35-4.36-6.65-7.69c-0.64-1.64-0.61-3.32,0.45-4.8c0.45-0.63,1.1-1.14,1.7-1.65c0.37-0.31,0.86-0.3,1.19,0.07
		c0.48,0.52,0.9,1.1,1.28,1.69c0.24,0.37,0.39,0.8,0.53,1.22c0.16,0.49,0,0.94-0.36,1.29c-0.3,0.3-0.64,0.56-0.98,0.82
		c-0.5,0.38-0.72,0.83-0.48,1.41c0.26,0.63,0.59,1.24,0.99,1.79c0.64,0.9,1.39,1.72,2.33,2.33c0.88,0.57,1.35,0.5,2.09-0.24
		c0.23-0.23,0.47-0.44,0.72-0.64c0.48-0.38,1.02-0.42,1.55-0.15c0.94,0.48,1.73,1.17,2.38,2C-148.22,241.49-148.31,242-148.8,242.45
		z"/>
	<g class="st1">
		<g>
			<path class="st3" d="M-248.93,251.71c0.4,0.02,0.79,0.04,1.19,0.06c0.2,0.04,0.41,0.07,0.61,0.11c2.33,0.48,4.21,1.67,5.59,3.61
				c1.47,2.07,1.97,4.38,1.5,6.87c-0.45,2.38-1.7,4.27-3.69,5.65c-2.05,1.43-4.33,1.9-6.79,1.44c-1.75-0.32-3.27-1.13-4.54-2.37
				c-1.55-1.52-2.45-3.37-2.67-5.54c-0.03-0.25-0.04-0.51-0.06-0.76c0.02-0.4,0.04-0.79,0.06-1.19c0.04-0.21,0.07-0.42,0.12-0.63
				c0.35-1.74,1.13-3.26,2.38-4.53c1.52-1.55,3.37-2.44,5.53-2.67C-249.43,251.75-249.18,251.73-248.93,251.71z M-248.44,253.92
				c-3.7-0.21-6.9,2.66-7.12,6.38c-0.22,3.69,2.64,6.89,6.37,7.13c3.69,0.23,6.93-2.67,7.13-6.38
				C-241.86,257.34-244.73,254.14-248.44,253.92z"/>
			<path class="st3" d="M-245.53,263.4l-0.76-0.97c-0.5-0.63-1-1.27-1.51-1.95c0.06-1.12,0.12-2.25,0.18-3.37l0.06-1.13
				c0-0.08,0.01-0.16,0.01-0.24c0-0.47-0.34-0.88-0.79-0.98c-0.31-0.07-0.63,0-0.87,0.18c-0.24,0.18-0.38,0.45-0.4,0.76
				c-0.04,0.62-0.07,1.23-0.1,1.85l-0.06,1.19c-0.04,0.66-0.07,1.33-0.11,1.99c-0.02,0.3,0.06,0.56,0.23,0.77l2.51,3.18
				c0.27,0.35,0.58,0.44,0.83,0.44c0.07,0,0.13-0.01,0.18-0.02c0.37-0.06,0.67-0.3,0.8-0.64
				C-245.2,264.13-245.27,263.72-245.53,263.4z"/>
		</g>
	</g>
	<path class="st4" d="M-242.66,202.22c0-3.59-2.91-6.49-6.49-6.49c-3.59,0-6.49,2.91-6.49,6.49c0,0-0.45,6.35,6.49,12.5
		C-242.21,208.57-242.66,202.22-242.66,202.22z M-249.16,204.96c-1.51,0-2.74-1.23-2.74-2.74c0-1.51,1.23-2.74,2.74-2.74
		c1.51,0,2.74,1.23,2.74,2.74C-246.42,203.73-247.64,204.96-249.16,204.96z"/>
	<path class="st4" d="M-147.19,259.77h-18.49c-1.38,0-2.46,1.08-2.46,2.46v10.81c0,1.41,1.07,2.48,2.48,2.48l18.48,0
		c1.41,0,2.48-1.07,2.48-2.48v-10.79C-144.7,260.84-145.77,259.77-147.19,259.77z M-161.19,273.67c-1.27,0-2.53,0-3.8,0l5.36-5.36
		l2.56,2.12c0.42,0.35,0.88,0.35,1.3,0l2.57-2.13l5.37,5.36L-161.19,273.67z M-146.56,272.25l-5.17-5.16l5.17-4.29
		C-146.56,265.95-146.56,269.1-146.56,272.25z M-153.27,267.73L-153.27,267.73l-0.01-0.01L-153.27,267.73z M-164.79,261.62l16.74,0
		l-8.37,6.94L-164.79,261.62z M-161.11,267.08l-5.17,5.17c0-3.15,0-6.31,0-9.46L-161.11,267.08z"/>
	<g class="st1">
		<g>
			<path class="st3" d="M-255.56,225.33c0-0.27,0-0.52,0-0.77c0.01-0.33,0.27-0.58,0.6-0.58c0.33,0,0.59,0.26,0.6,0.58
				c0,0.21,0,0.42,0,0.63c0,0.04,0,0.08,0,0.13c2.75,0,5.49,0,8.25,0c0-0.23,0-0.45,0-0.67c0-0.07,0-0.15,0.02-0.22
				c0.07-0.29,0.35-0.48,0.65-0.45c0.3,0.03,0.53,0.28,0.53,0.58c0,0.25,0,0.5,0,0.76c0.05,0,0.09,0,0.13,0c0.51,0,1.02,0,1.53,0
				c1.33,0,2.4,1.07,2.4,2.4c0,3.74,0,7.48,0,11.22c0,1.34-1.07,2.41-2.41,2.41c-4.64,0-9.28,0-13.92,0c-1.34,0-2.41-1.07-2.41-2.41
				c0-3.73,0-7.46,0-11.2c0-1.36,1.06-2.42,2.42-2.42c0.49,0,0.99,0,1.48,0C-255.66,225.33-255.62,225.33-255.56,225.33z
				 M-258.4,230.13c0,0.04,0,0.08,0,0.11c0,2.89,0,5.79,0,8.68c0,0.72,0.52,1.24,1.24,1.24c4.62,0,9.24,0,13.86,0
				c0.72,0,1.25-0.52,1.25-1.24c0-2.89,0-5.78,0-8.67c0-0.04,0-0.08,0-0.12C-247.52,230.13-252.96,230.13-258.4,230.13z
				 M-258.41,228.92c5.46,0,10.89,0,16.34,0c0-0.04,0-0.08,0-0.12c0-0.35,0-0.7,0-1.05c0-0.7-0.52-1.22-1.23-1.23c-0.5,0-1,0-1.5,0
				c-0.04,0-0.07,0-0.12,0.01c0,0.05,0,0.08,0,0.12c0,0.27,0,0.53,0,0.8c-0.01,0.32-0.28,0.57-0.6,0.57c-0.32,0-0.59-0.26-0.6-0.57
				c0-0.12,0-0.23,0-0.35c0-0.19,0-0.38,0-0.57c-2.75,0-5.49,0-8.25,0c0,0.05,0,0.08,0,0.12c0,0.26,0,0.52,0,0.78
				c-0.01,0.31-0.24,0.55-0.56,0.58c-0.29,0.03-0.56-0.17-0.63-0.47c-0.01-0.06-0.01-0.12-0.01-0.18c0-0.28,0-0.56,0-0.83
				c-0.02-0.01-0.03-0.01-0.04-0.01c-0.57,0-1.13-0.01-1.7,0.01c-0.56,0.02-1.04,0.48-1.09,1.04c-0.03,0.31-0.01,0.62-0.02,0.94
				C-258.41,228.64-258.41,228.78-258.41,228.92z"/>
			<path class="st3" d="M-246.71,234.31c0-0.94,0-1.88,0-2.83c1,0,1.99,0,2.99,0c0,0.94,0,1.88,0,2.83
				C-244.72,234.31-245.71,234.31-246.71,234.31z"/>
			<path class="st3" d="M-246.71,235.97c1,0,1.99,0,2.98,0c0,0.95,0,1.89,0,2.83c-1,0-1.99,0-2.98,0
				C-246.71,237.86-246.71,236.92-246.71,235.97z"/>
			<path class="st3" d="M-256.75,234.31c0-0.95,0-1.88,0-2.83c1,0,1.99,0,2.99,0c0,0.94,0,1.88,0,2.83
				C-254.76,234.31-255.75,234.31-256.75,234.31z"/>
			<path class="st3" d="M-248.82,234.31c-1,0-1.99,0-2.98,0c0-0.94,0-1.89,0-2.83c0.99,0,1.98,0,2.98,0
				C-248.82,232.43-248.82,233.36-248.82,234.31z"/>
			<path class="st3" d="M-253.77,238.81c-1,0-1.99,0-2.99,0c0-0.94,0-1.88,0-2.83c0.99,0,1.99,0,2.99,0
				C-253.77,236.92-253.77,237.86-253.77,238.81z"/>
			<path class="st3" d="M-248.82,238.81c-1,0-1.99,0-2.98,0c0-0.94,0-1.88,0-2.83c0.99,0,1.98,0,2.98,0
				C-248.82,236.92-248.82,237.86-248.82,238.81z"/>
		</g>
	</g>
	<g class="st1">
		<g>
			<g>
				<g>
					<path class="st3" d="M-44.28,257.14c-0.56,0.26-1.18,0.41-1.79,0.51c0.29-0.05,0.71-0.57,0.88-0.78
						c0.26-0.32,0.48-0.69,0.6-1.09c0.02-0.03,0.03-0.07,0-0.09c-0.04-0.02-0.06-0.01-0.09,0.01c-0.68,0.36-1.38,0.63-2.13,0.81
						c-0.06,0.02-0.11,0-0.15-0.04c-0.06-0.07-0.12-0.14-0.19-0.19c-0.31-0.27-0.65-0.48-1.03-0.63c-0.5-0.2-1.04-0.29-1.58-0.25
						c-0.52,0.03-1.04,0.18-1.5,0.42c-0.47,0.24-0.88,0.58-1.21,0.99c-0.34,0.42-0.59,0.92-0.72,1.45
						c-0.12,0.51-0.11,1.01-0.04,1.53c0.01,0.09,0,0.1-0.07,0.09c-2.92-0.44-5.35-1.48-7.31-3.72c-0.09-0.1-0.13-0.1-0.2,0.01
						c-0.86,1.29-0.44,3.36,0.63,4.38c0.14,0.14,0.29,0.27,0.45,0.4c-0.06,0.01-0.77-0.07-1.41-0.4c-0.09-0.05-0.13-0.02-0.14,0.07
						c-0.01,0.14,0,0.27,0.02,0.42c0.17,1.31,1.07,2.52,2.31,2.99c0.15,0.06,0.31,0.12,0.47,0.14c-0.28,0.06-0.57,0.11-1.38,0.04
						c-0.1-0.02-0.14,0.03-0.1,0.13c0.61,1.66,1.92,2.15,2.91,2.44c0.13,0.02,0.26,0.02,0.4,0.05c-0.01,0.01-0.02,0.01-0.02,0.02
						c-0.33,0.5-1.46,0.87-1.99,1.05c-0.96,0.34-2,0.49-3.02,0.39c-0.16-0.02-0.2-0.02-0.24,0c-0.04,0.03-0.01,0.07,0.05,0.11
						c0.21,0.14,0.42,0.26,0.63,0.37c0.64,0.34,1.31,0.61,2.02,0.81c3.62,1,7.71,0.27,10.43-2.44c2.14-2.12,2.89-5.05,2.89-7.98
						c0-0.11,0.14-0.18,0.22-0.24c0.56-0.42,1-0.92,1.41-1.48c0.09-0.13,0.09-0.24,0.09-0.28c0-0.01,0-0.02,0-0.02
						C-44.21,257.09-44.21,257.11-44.28,257.14z"/>
				</g>
				<g>
					<path class="st2" d="M-56.68,269.94C-55.18,269.94-56.61,269.94-56.68,269.94C-56.49,269.94-56.69,269.94-56.68,269.94z"/>
				</g>
				<g>
					<path class="st2" d="M-56.68,269.94C-56.71,269.94-56.98,269.94-56.68,269.94C-56.68,269.94-56.73,269.94-56.68,269.94z"/>
				</g>
				<g>
					<path class="st2" d="M-56.09,269.95C-56.09,269.92-55.77,269.95-56.09,269.95C-56.09,269.94-56.05,269.95-56.09,269.95z"/>
				</g>
				<g>
					<path class="st2" d="M-49.81,255.41c-0.02,0.02-0.05,0.02-0.07,0C-49.86,255.41-49.83,255.41-49.81,255.41z"/>
				</g>
			</g>
		</g>
	</g>
</g>
<g id="Capa_2">
	<g id="XMLID_829_">
		<g>
			<path id="XMLID_81_" class="st5" d="M956.3,738.18l-18.21-68.81c-47.86,11.52-108.59,32.2-175.44,68.81H956.3z"/>
			<path id="XMLID_80_" class="st5" d="M964.72,769.67H710.35c-77.27,50.28-159.93,122.2-239.38,225.9h553.39L964.72,769.67z"/>
			<path id="XMLID_79_" class="st5" d="M558.08,478.37c-9.14-24.7-19.3-51.95-29.21-79.06H213.19l-37.64,142.62h307.32
				C494.32,514.3,521.8,491.59,558.08,478.37"/>
			<path id="XMLID_78_" class="st5" d="M628.01,769.67H115.4l-59.76,225.9h355.05C453.8,932.4,525.2,844.45,628.01,769.67"/>
			<path id="XMLID_77_" class="st5" d="M929.4,635.92L866.88,399.3H731.9c-11.13,26.22-22.45,53.14-33.71,79.29
				c48.25,17.44,81.45,51.73,81.45,91.55c0,57.19-67.87,103.74-151.63,103.74c-72.37,0-132.91-34.93-147.77-81.51H162.18
				L123.7,738.18h551.27C746.57,693.24,830.91,655.8,929.4,635.92"/>
			<path id="XMLID_73_" class="st5" d="M606.33,511.7c-36.03,6.4-62.85,27.6-62.85,53.1c0,30.53,37.89,55.23,84.53,55.23
				c46.64,0,84.47-24.7,84.47-55.23c0-25.57-26.96-47-63.3-53.1c33.58-78,93.35-218.22,105.38-253.89
				c5.21-13.97,8.1-29.11,8.1-44.87c0-71.02-57.38-128.5-128.27-128.5c-71.09,0-128.54,57.48-128.54,128.5
				c0,13.8,2.32,27.08,6.37,39.57C518.84,275.75,575.58,429,606.33,511.7 M679.41,564.8c0,18.62-23.03,33.68-51.4,33.68
				c-28.43,0-51.47-15.05-51.47-33.68c0-15.31,16.02-28.18,37.64-32.07c7.27,19.53,11.97,32.07,11.97,32.07s5.53-12.61,14.15-32.39
				C662.62,536.04,679.41,549.13,679.41,564.8 M634.38,131.39c45.22,0,81.83,36.7,81.83,81.93c0,45.38-36.61,81.92-81.83,81.92
				c-45.36,0-81.96-36.54-81.96-81.92C552.41,168.09,589.02,131.39,634.38,131.39"/>
			<path id="XMLID_72_" class="st5" d="M634.25,272.66c33.13,0,59.89-26.69,59.89-59.73c0-33.1-26.77-59.76-59.89-59.76
				c-32.87,0-59.76,26.67-59.76,59.76C574.48,245.97,601.37,272.66,634.25,272.66"/>
		</g>
	</g>
</g>
</svg>
